<?xml version="1.0" encoding="UTF-8" standalone="no"?>
<svg
   xmlns:dc="http://purl.org/dc/elements/1.1/"
   xmlns:cc="http://creativecommons.org/ns#"
   xmlns:rdf="http://www.w3.org/1999/02/22-rdf-syntax-ns#"
   xmlns:svg="http://www.w3.org/2000/svg"
   xmlns="http://www.w3.org/2000/svg"
   xmlns:sodipodi="http://sodipodi.sourceforge.net/DTD/sodipodi-0.dtd"
   xmlns:inkscape="http://www.inkscape.org/namespaces/inkscape"
   aria-hidden="true"
   focusable="false"
   data-prefix="fas"
   data-icon="circle-notch"
   class="svg-inline--fa fa-circle-notch fa-w-16"
   role="img"
   viewBox="0 0 512 512"
   version="1.1"
   id="svg4"
   sodipodi:docname="circle-notch-solid.svg"
   inkscape:version="0.92.4 (5da689c313, 2019-01-14)">
  <metadata
     id="metadata10">
    <rdf:RDF>
      <cc:Work
         rdf:about="">
        <dc:format>image/svg+xml</dc:format>
        <dc:type
           rdf:resource="http://purl.org/dc/dcmitype/StillImage" />
      </cc:Work>
    </rdf:RDF>
  </metadata>
  <defs
     id="defs8" />
  <sodipodi:namedview
     pagecolor="#ffffff"
     bordercolor="#666666"
     borderopacity="1"
     objecttolerance="10"
     gridtolerance="10"
     guidetolerance="10"
     inkscape:pageopacity="0"
     inkscape:pageshadow="2"
     inkscape:window-width="1920"
     inkscape:window-height="1027"
     id="namedview6"
     showgrid="false"
     inkscape:zoom="0.921875"
     inkscape:cx="-14.351363"
     inkscape:cy="300.22283"
     inkscape:window-x="-8"
     inkscape:window-y="22"
     inkscape:window-maximized="1"
     inkscape:current-layer="svg4" />
  <circle
     style="fill:#000000;stroke:#ececec;stroke-width:21.19228363;stroke-miterlimit:4;stroke-dasharray:none;stroke-dashoffset:0;stroke-opacity:1"
     id="path14"
     cx="255.99976"
     cy="259.505"
     r="240.05507" />
  <path
     d="m 276.26689,119.8851 v 10.55087 c 0,6.84264 4.61138,12.76757 11.20131,14.60869 49.09551,13.71378 85.06688,58.73437 85.06688,112.24048 0,64.40405 -52.12099,116.53516 -116.53517,116.53516 -64.40405,0 -116.53516,-52.12099 -116.53516,-116.53516 0,-53.49851 35.96502,-98.52542 85.0656,-112.24048 6.5912,-1.84112 11.20258,-7.76732 11.20258,-14.61059 v -10.5439 c 0,-9.94919 -9.39503,-17.19717 -19.02944,-14.7151 -67.99003,17.51321 -118.156523,79.40605 -117.770818,152.95368 0.456007,86.80096 70.603208,156.40792 157.405448,156.22489 86.59133,-0.1824 156.73093,-70.43474 156.73093,-157.0685 0,-73.23539 -50.1228,-134.76216 -117.93549,-152.15187 -9.57045,-2.4542 -18.86667,4.87168 -18.86667,14.75183 z"
     id="path2"
     style="fill:#ececec;stroke-width:0.63334328"
     inkscape:connector-curvature="0" />
</svg>
